<?xml version="1.0" encoding="utf-8"?>
<!-- Generator: Adobe Illustrator 22.0.0, SVG Export Plug-In . SVG Version: 6.00 Build 0)  -->
<svg version="1.1" id="Layer_1" xmlns="http://www.w3.org/2000/svg" xmlns:xlink="http://www.w3.org/1999/xlink" x="0px" y="0px"
	 viewBox="0 0 216 216" style="enable-background:new 0 0 216 216;" xml:space="preserve">
<style type="text/css">
	.st0{fill:#7DC576;}
</style>
<rect x="-41.8" y="44.8" class="st0" width="17.3" height="25.3"/>
<g>
	<path class="st0" d="M108.8,11.5c16.1,0,32.2,0.2,48.3-0.1c8.5-0.2,13.7,3.3,17.4,10.9c11.6,23.9,23.5,47.6,35.5,71.2
		c3.8,7.6,4.2,14.6,0.3,22.3c-11.5,22.9-22.8,46-33.7,69.2c-5,10.7-12.2,15.7-24.4,15.4c-29.1-0.6-58.3-0.5-87.4,0
		c-11,0.2-18-4.2-22.6-13.9C30.7,162.6,19,138.8,7.3,115c-3.4-6.8-3.4-13.2,0-19.9c12.3-24.5,24.6-49,36.6-73.6
		c3.5-7.2,8.7-10.1,16.6-10C76.6,11.7,92.7,11.6,108.8,11.5z M115.8,33c-8.7,0-17.4-0.1-26.1,0c-13.8,0.1-14.1,0.7-8.3,12.8
		c0.9,2,2.3,3.8,2.9,5.9c9.8,36.4,32.5,48.9,70.2,44.3c30.8-3.8,31.5-1,17.2-28.5C149.5,25,164,34.1,115.8,33z M145.4,116.7
		C145.4,116.7,145.4,116.7,145.4,116.7c-8.3-0.1-16.6,0.5-24.8-0.2c-10.6-0.9-17,3.2-21.2,13c-5.7,13.2-12.4,25.9-19.2,38.6
		c-4.2,8-2.4,10.9,6.6,10.8c18.7-0.3,37.4-0.1,56.1-0.1c6,0,11.2-1.1,14.2-7.2c7.7-15.6,15.6-31.1,23.4-46.7
		c2.7-5.5,1.1-8.2-5.1-8.2C165.5,116.7,155.5,116.7,145.4,116.7z M55.5,51.2c-1,1.3-2.5,2.8-3.4,4.6c-7.3,14.4-14.4,28.8-21.6,43.1
		c-2.4,4.8-1.5,9.2,0.8,13.7c6.7,13.2,13.3,26.4,19.8,39.7c3.5,7.1,6.9,9,11,0.5c6.7-13.6,13.5-27.3,20.4-40.8
		c2.3-4.6,2.5-9,0.1-13.7c-7.1-14-14-28-21-42C60.5,54.1,59.7,51.3,55.5,51.2z"/>
</g>
</svg>
