<?xml version="1.0" encoding="utf-8"?>
<!-- Generator: Adobe Illustrator 22.0.0, SVG Export Plug-In . SVG Version: 6.00 Build 0)  -->
<svg version="1.1" id="Layer_1" xmlns="http://www.w3.org/2000/svg" xmlns:xlink="http://www.w3.org/1999/xlink" x="0px" y="0px"
	 viewBox="0 0 216 216" style="enable-background:new 0 0 216 216;" xml:space="preserve">
<style type="text/css">
	.st0{fill:#7DC576;}
</style>
<rect x="-41.8" y="44.8" class="st0" width="17.3" height="25.3"/>
<g>
	<path class="st0" d="M106.9,198.8c-23,0-46,0.2-69,0C14.4,198.6,2.5,187,2.5,163.6c-0.2-45.1-0.1-90.3,0-135.4
		c0-15.3,2.1-17.3,17.4-17.3c43.8-0.1,87.7-0.1,131.5,0c16.3,0,18.2,1.9,18.3,17.8c0.1,17.4,0.3,34.7-0.1,52.1
		c-0.2,9.1,2.5,14,12.5,13.5c33.6-1.7,29,2.9,29.2,30.3c0.1,13.9,0.3,27.8-0.1,41.7c-0.5,20.3-12.3,32.2-32.8,32.5
		C154.6,199.1,130.8,198.8,106.9,198.8z M148.2,104.9c0-19.9-0.3-39.9,0.1-59.8c0.2-9.4-3.3-13.2-12.9-13.1
		c-32.9,0.3-65.8,0.3-98.7,0c-9.6-0.1-13,3.6-12.9,13.1c0.3,38.1,0,76.2,0.2,114.3c0.1,14,4,17.8,17.9,17.9
		c31.2,0.2,62.4-0.1,93.6,0.2c9.4,0.1,13.2-3.3,13-12.9C147.9,144.7,148.3,124.8,148.2,104.9z M189.5,144.5c0.1,0,0.1,0,0.2,0
		c0-6.9,0.1-13.9,0-20.8c-0.1-6.1-4-8.1-9.5-8c-5.3,0-10,1.1-10.1,7.4c-0.2,14.3-0.3,28.6,0.3,42.9c0.2,5.6,3.5,10.3,9.8,10
		c6.3-0.3,8.9-5.2,9.3-10.7C189.9,158.4,189.5,151.4,189.5,144.5z"/>
	<path class="st0" d="M86,73.8c-10.4,0-20.8-0.1-31.3,0c-6.8,0-10.5-2.7-10.6-10C44,56.3,47,52.5,54.8,52.5
		c20.8,0.1,41.7,0.1,62.5,0c7.8,0,10.8,3.8,10.6,11.3c-0.1,7.3-3.9,10-10.7,9.9C106.9,73.7,96.5,73.8,86,73.8z"/>
	<path class="st0" d="M85,115.4c-10.4,0-20.8,0-31.3,0c-7.4,0-9.6-4.3-9.5-11c0.1-6.2,2.5-10.1,9.1-10.1c21.7-0.1,43.4,0,65.1-0.1
		c7.4,0,9.6,4.3,9.5,11c0,7.2-3.5,10.2-10.4,10.2C106.7,115.4,95.8,115.4,85,115.4C85,115.4,85,115.4,85,115.4z"/>
	<path class="st0" d="M111.4,135.8c8.8,0,16.5-0.7,16.5,10.5c0.1,13.3-9.5,10.5-17.2,10.8c-7.8,0.4-14.8-0.1-14.5-11.1
		C96.6,133.7,105.6,136.5,111.4,135.8z"/>
</g>
</svg>
