<?xml version="1.0" encoding="utf-8"?>
<!-- Generator: Adobe Illustrator 22.0.0, SVG Export Plug-In . SVG Version: 6.00 Build 0)  -->
<svg version="1.1" id="Layer_1" xmlns="http://www.w3.org/2000/svg" xmlns:xlink="http://www.w3.org/1999/xlink" x="0px" y="0px"
	 viewBox="0 0 216 216" style="enable-background:new 0 0 216 216;" xml:space="preserve">
<style type="text/css">
	.st0{fill:#FFFFFF;}
</style>
<g>
	<path class="st0" d="M108.9,1.8c19.4-1.2,38.8,1.9,57.9,6.5c12.1,2.9,23.5,7.6,34.3,14.1c6.8,4.1,9.7,9.6,9.9,17.7
		c0.7,28.5-6.4,54.9-19,80.2c-16.7,33.4-41.2,60.2-69.8,83.5c-3.6,3-7.5,5.6-11,8.7c-2.2,1.9-4.3,2.1-6.5,0.4
		c-8.2-6.4-16.6-12.5-24.4-19.4c-22.9-20-42.2-43.1-56.4-70.1c-9.4-18-16.5-36.8-18.8-57c-1.2-10.2-1-20.5-1.5-30.7
		c-0.2-4.3,1.8-7.3,5.4-9.6c11.4-7.3,23.8-12.6,36.8-16.3C66.1,3.9,87,0.7,108.9,1.8z M127.4,180.1c1.1-0.9,1.8-1.3,2.3-1.9
		c8.5-9,17.5-17.6,25.3-27.2c24.5-30.3,39.9-64.5,42.2-103.9c0.4-6.9-1.1-12-8.1-15.6c-18.5-9.3-38.3-13.3-58.5-15.2
		c-21.2-1.9-42.4-1.3-63.4,2.8C51,22.2,35.4,27,20.9,35.1c-2.6,1.4-3.9,3.3-3.7,6c0.5,8,0.7,16,1.7,23.9c2,15.3,7.1,29.8,13.6,43.8
		c2.8,6.1,6.2,11.8,9.3,17.6c0.4-10.1,0.8-20,1.3-30.5c-3.2,1.3-6.7,2.7-10.3,4.1c-0.3-0.3-0.5-0.6-0.8-0.9
		c6.5-19.3,22.2-30.8,37.9-42.5c-0.2-0.3-0.4-0.6-0.6-0.9c-3.3,0.3-6.7,0.6-11.3,1.1c1.8-1.9,2.6-3.1,3.6-3.9
		c16.5-14.5,35.9-18.5,57.1-15.5c2.4,0.3,3.8,0,4.8-2.2c3-6.4,8.2-10.4,14.3-13.4c0.7-0.4,1.6-0.3,2.5-0.4c-0.2,2.9-0.4,5.4-0.7,8.7
		c2.5-1.6,4.1-2.6,6.6-4.2c-0.4,2.7-0.9,4.4-0.9,6c-0.5,8.3-0.4,16.2,4.5,23.7c3.7,5.8,6.3,12.3,9.2,18.6c4.4,9.5,6.4,20,12.2,29.1
		c2.1,3.3,2.3,8.5,1.9,12.7c-0.7,7-6.3,11.2-14.1,11.6c-5.4,0.3-8.9-2.8-11.1-9.6c-0.3-1-1.4-2.3-2.4-2.6c-9.8-2.9-16.9-9.4-23-17.3
		c-1.7-2.2-3-2.1-4.9-0.6c-5,4-7.6,9.4-8.1,15.5c-1.2,13.8,3.8,25.8,10.8,37.4c2.4,4,4.4,8.6,5.5,13.1
		C126.9,168.7,126.8,174.1,127.4,180.1z"/>
</g>
</svg>
