<?xml version="1.0" encoding="utf-8"?>
<!-- Generator: Adobe Illustrator 22.0.0, SVG Export Plug-In . SVG Version: 6.00 Build 0)  -->
<svg version="1.1" id="Layer_1" xmlns="http://www.w3.org/2000/svg" xmlns:xlink="http://www.w3.org/1999/xlink" x="0px" y="0px"
	 viewBox="0 0 216 216" style="enable-background:new 0 0 216 216;" xml:space="preserve">
<style type="text/css">
	.st0{fill:#7DC576;}
</style>
<rect x="-41.8" y="44.8" class="st0" width="17.3" height="25.3"/>
<g>
	<path class="st0" d="M128.5,6.3c19,0,37.9-0.2,56.9,0c16.3,0.2,23.1,6.9,23.2,23.1c0.2,38.3,0.2,76.7,0,115
		c-0.1,16.6-7.4,24-24,24.1c-38.3,0.3-76.7,0.3-115,0c-15.7-0.1-23.1-7.7-23.2-23.6c-0.3-38.7-0.2-77.5,0-116.2
		c0.1-15.3,7.2-22.1,22.8-22.3C88.9,6.1,108.7,6.3,128.5,6.3z M67.1,86.3c0,16.4,0.2,32.9-0.1,49.3c-0.2,8.3,2.6,12.4,11.6,12.3
		c32.4-0.3,64.9-0.2,97.3,0c8.6,0.1,12.1-3.3,12-12c-0.2-32.4-0.2-64.9,0-97.3c0-7.7-2.6-11.7-10.9-11.7c-32.9,0.2-65.7,0.2-98.6,0
		c-8.1,0-11.4,3.3-11.3,11.3C67.3,54.3,67.1,70.3,67.1,86.3z"/>
	<path class="st0" d="M5.9,133.5c0-18.1,0.1-36.2,0-54.2c0-7.2,1.5-12.3,10.3-12.3c8.7,0,10.5,4.9,10.5,12.1
		c-0.1,31.5,0.3,63.1-0.2,94.6c-0.2,10.8,3.2,15,14.4,14.8c31.1-0.6,62.2-0.2,93.3-0.2c7.1,0,13.8,0.1,13.7,10.2
		c-0.1,6.5-2.3,10.5-9.4,10.5c-37.8-0.1-75.7,0.3-113.5-0.4c-12-0.2-18.8-8.5-19-20.8C5.6,169.7,5.9,151.6,5.9,133.5z"/>
	<path class="st0" d="M127.2,128.1c-13.4,0-26.9,0-40.3,0c-7.3,0-9.3-2.7-5-9.1c3.5-5.2,6.7-10.7,10.2-15.9c1.9-2.9,4.7-6,8.2-3
		c7.7,6.6,11,0.5,14.8-4.4c5.6-7.3,11.3-14.6,16.6-22.2c4.2-5.9,7.6-5.3,11.4,0.4c9.8,14.6,19.7,29.2,29.8,43.7
		c4.9,7,3.9,10.6-5.3,10.5C154,128,140.6,128.1,127.2,128.1z"/>
</g>
</svg>
