<?xml version="1.0" encoding="utf-8"?>
<!-- Generator: Adobe Illustrator 22.0.0, SVG Export Plug-In . SVG Version: 6.00 Build 0)  -->
<svg version="1.1" id="Layer_1" xmlns="http://www.w3.org/2000/svg" xmlns:xlink="http://www.w3.org/1999/xlink" x="0px" y="0px"
	 viewBox="0 0 216 216" style="enable-background:new 0 0 216 216;" xml:space="preserve">
<style type="text/css">
	.st0{fill:#7DC576;}
</style>
<rect x="-41.8" y="44.8" class="st0" width="17.3" height="25.3"/>
<g>
	<path class="st0" d="M107.7,212.5c-57.6,0-105.4-47.8-105.4-105.3C2.2,49.6,50,1.8,107.6,1.8C165.1,1.8,213,49.6,213,107.1
		C213,164.7,165.2,212.5,107.7,212.5z M207.3,107.4c0-55.6-43.9-99.9-99.3-99.9c-55.7,0-100,43.8-100.1,99
		c-0.1,56.1,43.8,100.3,99.7,100.3C163.1,206.8,207.3,162.8,207.3,107.4z"/>
	<path class="st0" d="M75.6,130.9c-3.5-11.5,13.8-7,11.8-17.2c0,0-0.3-0.8-0.7-0.8C75,110.3,75,110.3,75,97.3c0-17.1,0-17.1,17.3-17
		c11.5,0.1,11.5,0.1,11.5,11.3c0,5.8,0.2,11.6-0.1,17.3C103,125.1,92.5,133.4,75.6,130.9z"/>
	<path class="st0" d="M112.2,131.2c-4.2-11.7,14-7.5,11.6-17.6c-0.2-0.2-0.5-0.8-0.9-0.9c-11.5-2.1-11.5-2-11.5-14
		c0-18.7,0-18.5,19.3-18.5c6.9,0,10.3,1.8,9.6,9.4c-0.5,5.7-0.1,11.5-0.1,17.3C139.9,124.5,130.7,132.7,112.2,131.2z"/>
</g>
</svg>
