<?xml version="1.0" encoding="utf-8"?>
<!-- Generator: Adobe Illustrator 22.0.0, SVG Export Plug-In . SVG Version: 6.00 Build 0)  -->
<svg version="1.1" id="Layer_1" xmlns="http://www.w3.org/2000/svg" xmlns:xlink="http://www.w3.org/1999/xlink" x="0px" y="0px"
	 viewBox="0 0 216 216" style="enable-background:new 0 0 216 216;" xml:space="preserve">
<style type="text/css">
	.st0{fill:#7DC576;}
</style>
<g>
	<path class="st0" d="M203.5,70.8c-5.1,61.9-33.3,110-88.2,141.6c-5.5,3.2-10.7,3-16.5,0.3C45.3,187.3,6.3,120,9.9,60.5
		c0.6-9.6,3.8-15.5,12.6-19.7C46.2,29.5,69.7,17.7,93,5.6c9.6-5,18.3-4.9,27.9,0.1c20.5,10.7,41,21.7,62.2,30.9
		C198.8,43.4,207.5,52.4,203.5,70.8z M180.4,70.4c1.6-6.5-1.7-10.1-7-12.7c-19.5-9.7-39.1-19.4-58.5-29.3c-5.7-2.9-11-2.5-16.6,0.3
		c-19.1,9.6-38.2,19.2-57.4,28.5c-6.5,3.2-9.1,7.8-8.6,14.9c3.5,48,25.6,85.2,64.8,112.9c7.5,5.3,13.1,4.6,20.2-0.6
		C155.9,155.9,176.7,117.9,180.4,70.4z"/>
</g>
<rect x="-41.8" y="44.8" class="st0" width="17.3" height="25.3"/>
</svg>
